<?xml version="1.0"?>
<svg xmlns="http://www.w3.org/2000/svg" id="Capa_1" enable-background="new 0 0 512.004 512.004" height="512px" viewBox="0 0 512.004 512.004" width="512px"><g><path d="m285.904 155.231h132.874c4.143 0 7.5-3.357 7.5-7.5s-3.357-7.5-7.5-7.5h-132.874c-4.143 0-7.5 3.357-7.5 7.5s3.358 7.5 7.5 7.5z" fill="#FFFFFF"/><path d="m285.904 184.831h132.874c4.143 0 7.5-3.357 7.5-7.5s-3.357-7.5-7.5-7.5h-132.874c-4.143 0-7.5 3.357-7.5 7.5s3.358 7.5 7.5 7.5z" fill="#FFFFFF"/><path d="m285.904 214.432h132.874c4.143 0 7.5-3.357 7.5-7.5s-3.357-7.5-7.5-7.5h-132.874c-4.143 0-7.5 3.357-7.5 7.5s3.358 7.5 7.5 7.5z" fill="#FFFFFF"/><path d="m285.904 251.031h3.546c4.143 0 7.5-3.357 7.5-7.5s-3.357-7.5-7.5-7.5h-3.546c-4.143 0-7.5 3.357-7.5 7.5s3.358 7.5 7.5 7.5z" fill="#FFFFFF"/><path d="m285.904 280.632h3.546c4.143 0 7.5-3.357 7.5-7.5s-3.357-7.5-7.5-7.5h-3.546c-4.143 0-7.5 3.357-7.5 7.5s3.358 7.5 7.5 7.5z" fill="#FFFFFF"/><path d="m285.904 310.231h3.546c4.143 0 7.5-3.357 7.5-7.5s-3.357-7.5-7.5-7.5h-3.546c-4.143 0-7.5 3.357-7.5 7.5s3.358 7.5 7.5 7.5z" fill="#FFFFFF"/><path d="m414.488 236.031h-99.056c-4.143 0-7.5 3.357-7.5 7.5s3.357 7.5 7.5 7.5h99.056c4.143 0 7.5-3.357 7.5-7.5s-3.357-7.5-7.5-7.5z" fill="#FFFFFF"/><path d="m414.488 265.632h-99.056c-4.143 0-7.5 3.357-7.5 7.5s3.357 7.5 7.5 7.5h99.056c4.143 0 7.5-3.357 7.5-7.5s-3.357-7.5-7.5-7.5z" fill="#FFFFFF"/><path d="m414.488 295.231h-99.056c-4.143 0-7.5 3.357-7.5 7.5s3.357 7.5 7.5 7.5h99.056c4.143 0 7.5-3.357 7.5-7.5s-3.357-7.5-7.5-7.5z" fill="#FFFFFF"/><path d="m73.23 221.731c0 49.676 40.414 90.09 90.09 90.09 49.867 0 90.09-40.453 90.09-90.09 0-49.676-40.414-90.09-90.09-90.09s-90.09 40.415-90.09 90.09zm123.885 0c0 18.583-15.08 33.795-33.795 33.795-18.635 0-33.795-15.16-33.795-33.795s15.16-33.795 33.795-33.795 33.795 15.161 33.795 33.795zm-33.795 75.09c-41.404 0-75.09-33.686-75.09-75.09 0-38.875 29.691-70.944 67.59-74.718v26.498c-23.357 3.619-41.295 23.864-41.295 48.22 0 26.905 21.89 48.795 48.795 48.795 10.092 0 19.778-3.079 27.92-8.781l18.731 18.813c-13.233 10.537-29.536 16.263-46.651 16.263zm57.412-26.714-18.655-18.737c4.697-6.118 7.848-13.216 9.23-20.798h26.568c-1.707 14.621-7.627 28.276-17.143 39.535zm-49.912-123.093c35.878 3.572 64.4 32.5 67.34 68.559h-26.432c-2.725-21.542-19.551-38.751-40.908-42.061z" fill="#FFFFFF"/><path d="m266.002 351.149c0 4.143 3.357 7.5 7.5 7.5h195.659c6.422 0 11.646-5.225 11.646-11.646 0-12.676 0-260.121 0-284.949 0-6.422-5.225-11.646-11.646-11.646-17.637 0-408.642 0-426.318 0-6.422 0-11.646 5.225-11.646 11.646v284.949c0 6.422 5.225 11.646 11.646 11.646h195.659c4.143 0 7.5-3.357 7.5-7.5s-3.357-7.5-7.5-7.5h-192.306v-241.153h419.611v241.153h-192.305c-4.143 0-7.5 3.358-7.5 7.5zm-189.772-263.653h-30.034v-22.089h30.034zm15 0v-22.089h374.577v22.089z" fill="#FFFFFF"/><path d="m475.684 19.212h-439.365c-20.026 0-36.319 16.293-36.319 36.319v297.994c0 20.027 16.293 36.32 36.319 36.32h165.64v21.777c0 9.138-4.397 17.747-11.478 22.47l-18.745 12.504h-14.903c-9.649 0-17.499 7.85-17.499 17.499v11.197c0 9.649 7.85 17.499 17.499 17.499h198.337c9.649 0 17.499-7.85 17.499-17.499v-11.197c0-9.649-7.85-17.499-17.499-17.499h-14.903l-18.745-12.504c-7.08-4.723-11.479-13.332-11.479-22.47v-21.777h165.64c20.027 0 36.32-16.293 36.32-36.32v-131.497c0-4.143-3.357-7.5-7.5-7.5s-7.5 3.357-7.5 7.5v131.497c0 11.756-9.564 21.32-21.32 21.32-11.445 0-427.458 0-439.364 0-11.756 0-21.319-9.564-21.319-21.32v-297.994c0-11.756 9.563-21.319 21.319-21.319h439.364c11.756 0 21.32 9.563 21.32 21.319v131.497c0 4.143 3.357 7.5 7.5 7.5s7.5-3.357 7.5-7.5v-131.497c.001-20.026-16.292-36.319-36.319-36.319zm-120.514 442.385c1.378 0 2.499 1.121 2.499 2.499v11.197c0 1.378-1.121 2.499-2.499 2.499h-198.336c-1.378 0-2.499-1.121-2.499-2.499v-11.197c0-1.378 1.121-2.499 2.499-2.499zm-138.211-49.974v-21.777h78.085v21.777c0 14.301 6.787 27.366 18.154 34.948l.038.025h-114.468l.038-.025c11.367-7.582 18.153-20.646 18.153-34.948z" fill="#FFFFFF"/></g></svg>
