<?xml version="1.0"?>
<svg xmlns="http://www.w3.org/2000/svg" id="Capa_1" enable-background="new 0 0 512.007 512.007" height="512px" viewBox="0 0 512.007 512.007" width="512px"><g><path d="m142 143.003h139v-143c-49.379 0-107.674 0-154 0v128c0 8.271 6.729 15 15 15z" fill="#FFFFFF"/><path d="m345 128.003v-128c-9.97 0-21.461 0-34 0v143h19c8.271 0 15-6.729 15-15z" fill="#FFFFFF"/><path d="m127 512.003h218v-161h-218z" fill="#FFFFFF"/><path d="m511.927 126.537c-.279-2.828-1.38-5.667-3.315-8.027-.747-.913 6.893 6.786-114.006-114.113-2.882-2.882-6.794-4.396-10.612-4.394-.789 0-3.925 0-8.995 0v128c0 24.813-20.187 45-45 45-14.028 0-186.064 0-188 0-24.813 0-45-20.187-45-45v-128c-29.589 0-49.82 0-52 0-24.813 0-45 20.187-45 45v422c0 24.813 20.187 45 45 45h52c0-10.815 0-201.797 0-210 0-24.813 20.187-45 45-45h188c24.813 0 45 20.187 45 45v210h92c24.813 0 45-20.187 45-45 .001-364.186.041-339.316-.072-340.466z" fill="#FFFFFF"/><path d="m330 287.003h-188c-8.271 0-15 6.729-15 15v19h218v-19c0-8.271-6.729-15-15-15z" fill="#FFFFFF"/></g></svg>
