<?xml version="1.0"?>
<svg xmlns="http://www.w3.org/2000/svg" xmlns:xlink="http://www.w3.org/1999/xlink" version="1.1" id="Capa_1" x="0px" y="0px" viewBox="0 0 368 368" style="enable-background:new 0 0 368 368;" xml:space="preserve" width="512px" height="512px" class="hovered-paths"><g><g><path d="M311.999,200l-128,160l-128-160h80V16c0-4.4,3.6-8,8-8h80c4.4,0,8,3.6,8,8v184H311.999z" data-original="#FFFFFF" class="hovered-path active-path" data-old_color="#CCE4FF" fill="#FFFFFF"/><path d="M177.751,365c1.52,1.896,3.816,3,6.248,3s4.728-1.104,6.248-3l128-160  c1.92-2.4,2.296-5.688,0.968-8.464c-1.336-2.776-4.144-4.536-7.216-4.536h-72V16c0-8.824-7.176-16-16-16h-80  c-8.824,0-16,7.176-16,16v176h-72c-3.072,0-5.88,1.76-7.208,4.536c-1.336,2.768-0.96,6.064,0.968,8.464L177.751,365z M135.999,208  c4.416,0,8-3.584,8-8V16l80,0.024V200c0,4.416,3.584,8,8,8h63.352L183.999,347.192L72.647,208H135.999z" data-original="#FFFFFF" class="active-path" data-old_color="#007AFF" fill="#FFFFFF"/></g></g> </svg>
