<?xml version="1.0"?>
<svg xmlns="http://www.w3.org/2000/svg" id="Capa_1" enable-background="new 0 0 512 512" height="512px" viewBox="0 0 512 512" width="512px" class=""><g><g><path d="m467 0h-422c-24.813 0-45 20.187-45 45v422c0 24.813 20.187 45 45 45h422c24.813 0 45-20.187 45-45v-422c0-24.813-20.187-45-45-45zm15 467c0 8.271-6.729 15-15 15h-422c-8.271 0-15-6.729-15-15v-422c0-8.271 6.729-15 15-15h422c8.271 0 15 6.729 15 15z" data-original="#000000" class="active-path" data-old_color="#000000" fill="#FFFFFF"/><path d="m436 61h-60c-8.284 0-15 6.716-15 15s6.716 15 15 15h45v45c0 8.284 6.716 15 15 15s15-6.716 15-15v-60c0-8.284-6.716-15-15-15z" data-original="#000000" class="active-path" data-old_color="#000000" fill="#FFFFFF"/><path d="m436 361c-8.284 0-15 6.716-15 15v45h-45c-8.284 0-15 6.716-15 15s6.716 15 15 15h60c8.284 0 15-6.716 15-15v-60c0-8.284-6.716-15-15-15z" data-original="#000000" class="active-path" data-old_color="#000000" fill="#FFFFFF"/><path d="m76 151c8.284 0 15-6.716 15-15v-45h45c8.284 0 15-6.716 15-15s-6.716-15-15-15h-60c-8.284 0-15 6.716-15 15v60c0 8.284 6.716 15 15 15z" data-original="#000000" class="active-path" data-old_color="#000000" fill="#FFFFFF"/><path d="m136 421h-45v-45c0-8.284-6.716-15-15-15s-15 6.716-15 15v60c0 8.284 6.716 15 15 15h60c8.284 0 15-6.716 15-15s-6.716-15-15-15z" data-original="#000000" class="active-path" data-old_color="#000000" fill="#FFFFFF"/><path d="m272.672 211c8.284 0 15-6.716 15-15s-6.716-15-15-15h-50.563c-8.284 0-15 6.716-15 15v120c0 8.284 6.716 15 15 15h50.563c8.284 0 15-6.716 15-15s-6.716-15-15-15h-35.563v-30h31.835c8.284 0 15-6.716 15-15s-6.716-15-15-15h-31.835v-30z" data-original="#000000" class="active-path" data-old_color="#000000" fill="#FFFFFF"/><path d="m174.409 227.187c0-25.468-21.511-46.187-47.952-46.187h-31.888c-.007 0-.013.001-.02.001s-.013-.001-.019-.001c-8.284 0-15 6.716-15 15v120c0 8.284 6.716 15 15 15s15-6.716 15-15v-33.969l38.619 43.879c2.965 3.369 7.105 5.09 11.266 5.09 3.52 0 7.055-1.231 9.904-3.74 6.219-5.473 6.823-14.951 1.35-21.17l-30.497-34.652c19.777-5.697 34.237-23.374 34.237-44.251zm-47.951 16.186c-3.902 0-10.545.027-16.751.057-.03-6.059-.058-12.494-.058-16.243 0-3.212-.016-9.852-.034-16.187h16.842c9.731 0 17.952 7.412 17.952 16.187s-8.221 16.186-17.951 16.186z" data-original="#000000" class="active-path" data-old_color="#000000" fill="#FFFFFF"/><path d="m430.578 315.286c2.262-2.015 4.409-4.229 6.384-6.583 5.324-6.348 4.495-15.809-1.852-21.133s-15.808-4.495-21.132 1.852c-1.045 1.246-2.174 2.412-3.354 3.464-6.046 5.384-13.769 8.114-22.954 8.114-24.813 0-45-20.187-45-45s20.187-45 45-45c9.02 0 17.716 2.654 25.149 7.677 6.864 4.637 16.188 2.832 20.827-4.032 4.638-6.864 2.833-16.189-4.032-20.827-12.412-8.385-26.916-12.818-41.944-12.818-41.355 0-75 33.645-75 75s33.645 75 75 75c16.528 0 31.365-5.433 42.908-15.714z" data-original="#000000" class="active-path" data-old_color="#000000" fill="#FFFFFF"/></g></g> </svg>
